<svg width="70" height="16" viewBox="0 0 70 16" fill="none" xmlns="http://www.w3.org/2000/svg">
<path d="M1.03077 14.9077C0.338462 14.2923 0 13.3385 0 12.0769V4.76923C0 3.18462 0.307692 1.98462 0.938462 1.18462C1.56923 0.384615 2.55385 0 3.89231 0C5.06154 0 6 0.307692 6.72308 0.907692C7.43077 1.50769 7.78462 2.35385 7.78462 3.47692C7.78462 4.32308 7.78462 5.16923 7.78462 6.03077C6.73846 6.07692 5.67692 6.13846 4.63077 6.2C4.63077 5.44615 4.63077 4.70769 4.63077 3.95385C4.63077 3.52308 4.58462 3.21538 4.46154 3.06154C4.35385 2.89231 4.15385 2.81538 3.89231 2.83077C3.61538 2.83077 3.41538 2.93846 3.30769 3.13846C3.2 3.33846 3.15385 3.61538 3.15385 3.98462C3.15385 6.55385 3.15385 9.13846 3.15385 11.7077C3.15385 12.1077 3.21538 12.4 3.33846 12.5692C3.46154 12.7385 3.64615 12.8154 3.89231 12.7846C4.38462 12.7231 4.63077 12.3231 4.63077 11.5538C4.63077 10.6462 4.63077 9.72308 4.63077 8.81539C5.69231 8.73846 6.75385 8.66154 7.81538 8.58462C7.81538 9.50769 7.81538 10.4462 7.81538 11.3692C7.81538 13.8462 6.47692 15.2308 3.81538 15.6154C2.66154 15.7846 1.73846 15.5692 1.04615 14.9385L1.03077 14.9077Z" fill="#B72128"/>
<path d="M9.95386 14.6771C9.95386 9.83098 9.98463 4.98483 9.98463 0.138672C11.0308 0.138672 12.0923 0.138672 13.1385 0.138672C13.1385 1.83098 13.1385 3.52329 13.1385 5.2156C13.6308 5.20021 14.1385 5.18483 14.6308 5.16944C14.6308 3.49252 14.6308 1.8156 14.6308 0.138672C15.6769 0.138672 16.7385 0.138672 17.7846 0.138672C17.7846 4.73867 17.7539 9.35406 17.7385 13.9541C16.6923 14.031 15.6308 14.1233 14.5846 14.2156C14.5846 12.0925 14.5846 9.95406 14.6 7.83098C14.1077 7.86175 13.6 7.87713 13.1077 7.9079C13.1077 10.0617 13.1077 12.2156 13.0923 14.3541C12.0462 14.4617 10.9846 14.5694 9.93848 14.6771H9.95386Z" fill="#B72128"/>
<path d="M19.8459 13.8002C20.369 9.2156 20.8921 4.66175 21.4152 0.138672C23.1998 0.138672 24.9998 0.138672 26.7844 0.138672C27.2767 4.58483 27.7844 9.00021 28.2767 13.4156C27.2767 13.4464 26.2613 13.4771 25.2613 13.5233C25.1844 12.8002 25.1229 12.0925 25.0459 11.3694C24.3998 11.4002 23.769 11.4156 23.1229 11.4464C23.0613 12.1694 22.9998 12.9079 22.9383 13.631C21.9075 13.6925 20.8767 13.7387 19.8459 13.8156V13.8002ZM23.369 9.26175C23.8459 9.24636 24.3229 9.23098 24.8152 9.21559C24.5844 6.95406 24.3536 4.67713 24.1229 2.40021C24.0767 2.40021 24.0306 2.40021 23.969 2.40021C23.769 4.67713 23.569 6.96944 23.369 9.26175Z" fill="#B72128"/>
<path d="M30.3538 13.3387C30.3538 8.93868 30.3538 4.52329 30.3538 0.123291C32.4768 0.123291 34.5845 0.123291 36.7076 0.123291C36.7076 0.969445 36.7076 1.8156 36.7076 2.67714C35.6615 2.67714 34.6307 2.67714 33.5845 2.67714C33.5845 3.53868 33.5845 4.38483 33.5845 5.24637C34.5845 5.24637 35.5845 5.24637 36.5845 5.24637C36.5845 6.07714 36.5845 6.90791 36.5845 7.73868C35.5845 7.73868 34.5845 7.73868 33.5845 7.73868C33.5845 8.75406 33.5845 9.75406 33.5845 10.7694C34.6922 10.7694 35.7999 10.7694 36.9076 10.7694C36.9076 11.631 36.9076 12.4771 36.9076 13.3387C34.723 13.3233 32.523 13.3387 30.3384 13.3694L30.3538 13.3387Z" fill="#B72128"/>
<path d="M39.0923 13.3541C39.0923 8.93868 39.0923 4.53868 39.0923 0.123291C41.2154 0.123291 43.3231 0.123291 45.4461 0.123291C45.4461 1.00021 45.4461 1.86175 45.4461 2.73868C44.4 2.73868 43.3384 2.72329 42.2923 2.70791C42.2923 3.4156 42.2923 4.12329 42.2923 4.83098C43.2923 4.83098 44.2923 4.86175 45.2923 4.87714C45.2923 5.73868 45.2923 6.60021 45.2923 7.46175C44.2923 7.43098 43.2923 7.4156 42.2923 7.40021C42.2923 9.4156 42.2923 11.431 42.2923 13.4464C41.2307 13.4156 40.1538 13.3848 39.0923 13.3541Z" fill="#B72128"/>
<path d="M47.5845 13.6771C47.5845 9.15406 47.5691 4.64637 47.5537 0.123291C48.6152 0.123291 49.6768 0.123291 50.7229 0.123291C50.7229 3.92329 50.7383 7.73868 50.7537 11.5387C51.846 11.6002 52.9383 11.6771 54.0306 11.7541C54.0306 12.5541 54.0306 13.3387 54.0306 14.1387C51.8768 13.9541 49.7383 13.8002 47.5845 13.6771Z" fill="#B72128"/>
<path d="M55.877 14.3233C55.877 9.60021 55.8462 4.86175 55.8308 0.138672C56.8462 0.138672 57.877 0.138672 58.8923 0.138672C58.8923 4.96944 58.9231 9.80021 58.9231 14.631C57.9077 14.5233 56.877 14.4156 55.8616 14.3233H55.877Z" fill="#B72128"/>
<path d="M60.8616 14.8464C61.4154 12.3079 61.9847 9.73868 62.5385 7.13868C62.0923 4.76945 61.6308 2.43098 61.1693 0.123291C62.2 0.123291 63.2308 0.123291 64.277 0.123291C64.5539 1.86175 64.8308 3.6156 65.1077 5.38483C65.3385 3.64637 65.5847 1.89252 65.8154 0.123291C66.8616 0.123291 67.8923 0.123291 68.9385 0.123291C68.477 2.60021 68.0308 5.04637 67.5693 7.46175C68.1385 10.2618 68.7077 13.1079 69.2616 16.0002C68.2 15.831 67.1385 15.6771 66.0616 15.5233C65.7231 13.4771 65.4 11.431 65.0616 9.4156C64.7231 11.3694 64.3847 13.3233 64.0616 15.2464C62.9847 15.1079 61.9077 14.9694 60.8462 14.8464H60.8616Z" fill="#B72128"/>
</svg>
